<svg width="631" height="503" viewBox="0 0 631 503" fill="none" xmlns="http://www.w3.org/2000/svg">
<rect width="631" height="503" fill="#1E1E1E"/>
<path d="M346 86L354.48 234.03L462.238 113.146L368.748 241.323L541.571 185.964L375.794 253.593L558.812 281.336L373.38 266.945L508.486 368.981L362.273 277.14L406.573 421.073L346 280.94L285.428 421.073L329.727 277.14L183.514 368.981L318.62 266.945L133.188 281.336L316.206 253.593L150.429 185.964L323.252 241.323L229.762 113.146L337.52 234.03L346 86Z" fill="#2C2B2C"/>
<path d="M315.5 2L334.388 254.685L630.3 392.75L315.5 278.13L0.699768 392.75L296.612 254.685L315.5 2Z" fill="#2C2B2C"/>
<path d="M310.876 121.488L335.181 198.822L368.216 122.954L360.296 203.838L420.597 143.401L381.521 216.912L460.944 180.069L395.99 236.277L483.808 228.004L401.749 259.319L486.102 280.732L398.019 282.925L467.516 331.134L385.306 303.907L430.559 372.4L365.325 319.433L380.223 398.959L340.775 327.404L323.306 407.224L314.972 326.744L267.496 396.077L291.4 317.542L220.328 367.025L273.244 301.042L188.175 323.991L262.955 279.471L175.378 272.788L261.923 255.744L183.665 220.329L270.287 233.063L211.918 173.701L286.917 214.493L256.321 139.201L309.569 202.541L310.876 121.488Z" fill="#2C2B2C"/>
<path d="M424.776 175.902L405.804 275.335L515.669 243.861L423.847 300.69L541.701 340.219L419.992 327.852L490.691 419.887L396.045 344.111L386.507 445.588L363.21 341.86L277.898 405.297L336.851 322.152L215.683 317.866L329.301 294.208L228.974 224.205L344.094 271.104L311.551 168.139L374.308 263.651L424.776 175.902Z" fill="#2C2B2C"/>
<path d="M353.406 0.563557L355.662 260.568L534.367 427.968L328.289 303.665L104.56 392.351L308.383 256.65L353.406 0.563557Z" fill="#B2B2B2"/>
<path d="M265.348 502.217L307.68 288.602L193.228 125.808L333.471 260.252L523.256 218.723L340.683 297.893L265.348 502.217Z" fill="#B2B2B2"/>
<path d="M406.047 196.928L359.57 279.019L319.94 235.459L406.047 196.928Z" fill="#B2B2B2"/>
<path d="M325.165 156.65L351.029 276.101L465.74 331.537L342.728 294.511L232.928 361.196L330.076 278.771L325.165 156.65Z" fill="#B2B2B2"/>
</svg>
