<svg width="674" height="620" viewBox="0 0 674 620" fill="none" xmlns="http://www.w3.org/2000/svg">
<path d="M402.472 119.56L364.94 280.924L534.788 241.034L378.554 317.242L513.979 417.027L356.691 350.691L355.715 515.011L315.814 356.085L179.173 461.203L286.705 329.361L117.291 296.121L291.282 290.642L216.669 144.076L326.101 269.086L402.472 119.56Z" fill="#2C2B2C"/>
<path d="M394.976 136.066L360.647 303.987L452.009 444.293L320.848 338.392L146.235 351.096L311.723 289.075L394.976 136.066Z" fill="#2C2B2C"/>
<path d="M428.886 69.5871L350.199 305.846L567.611 165.35L358.158 316.436L618.098 321.387L357.881 329.59L561.063 478.096L349.478 340.283L418.292 575.62L336.156 344.43L244.318 576.707L323.005 340.449L105.594 480.944L315.047 329.858L55.1057 324.907L315.322 316.705L112.141 168.198L323.726 306.012L254.912 70.6751L337.047 301.864L428.886 69.5871Z" fill="#2C2B2C"/>
<path d="M336.5 40.7305L352.384 272.219L535.515 103.775L376.72 289.993L641.408 263.41L382.237 317.222L604.633 444.939L366.352 341.168L442.394 563.424L336.5 350.624L230.606 563.424L306.648 341.168L68.3675 444.939L290.763 317.222L31.5914 263.41L296.28 289.993L137.485 103.775L320.616 272.219L336.5 40.7305Z" fill="#B2B2B2"/>
<path d="M389.215 45.054L365.519 301.31L573.973 486.412L331.228 336.718L46.3132 399.142L312.753 292.582L389.215 45.054Z" fill="#B2B2B2"/>
<path d="M587.687 154.787L406.189 309.707L627.404 431.645L384.428 357.58L389.314 591.2L327.836 362.215L111.507 473.898L293.005 318.977L71.7904 197.038L314.765 271.104L309.879 37.483L371.358 266.468L587.687 154.787Z" fill="#B2B2B2"/>
<path d="M411.602 364.164L335.346 333.345L292.78 443.195L313.427 336.466L211.789 392.609L308.693 316.698L249.62 262.992L325.877 293.811L368.442 183.961L347.796 290.689L449.434 234.547L352.53 310.458L411.602 364.164Z" fill="#2C2B2C"/>
</svg>
