<svg width="1016" height="634" viewBox="0 0 1016 634" fill="none" xmlns="http://www.w3.org/2000/svg">
<rect width="1016" height="634" fill="#1E1E1E"/>
<g clip-path="url(#clip0_0_1)">
<path d="M519.755 206L370.997 471.42L332 541H409.5H1016L888.937 313.734L629.309 400.946L519.755 206Z" fill="black"/>
<path d="M207.601 332.202L4 476.36V541H263H332L281.465 456.179L207.601 332.202Z" fill="black"/>
<path d="M281.465 456.179L332 541L370.997 471.42L332 400.946L281.465 456.179Z" fill="black"/>
<path d="M332 541H409.5M332 541H263M332 541L281.465 456.179M332 541L370.997 471.42M409.5 541H1016L888.937 313.734L629.309 400.946L519.755 206L370.997 471.42M409.5 541L370.997 471.42M263 541H4V476.36L207.601 332.202L281.465 456.179M263 541V476.36L281.465 456.179M281.465 456.179L332 400.946L370.997 471.42" stroke="black"/>
</g>
<defs>
<clipPath id="clip0_0_1">
<rect width="1016" height="634" fill="white"/>
</clipPath>
</defs>
</svg>
