<svg width="1013" height="229" viewBox="0 0 1013 229" fill="none" xmlns="http://www.w3.org/2000/svg">
<path d="M507.5 19.2022L367.997 158.42L329 228H406.5H1013L885.937 0.733551L626.309 87.9464L507.5 19.2022Z" fill="black"/>
<path d="M204.601 19.2022L1 163.36V228H260H329L278.465 143.179L204.601 19.2022Z" fill="black"/>
<path d="M278.465 143.179L329 228L367.997 158.42L329 87.9464L278.465 143.179Z" fill="black"/>
<path d="M329 228H406.5M329 228H260M329 228L278.465 143.179M329 228L367.997 158.42M406.5 228H1013L885.937 0.733551L626.309 87.9464L507.5 19.2022L367.997 158.42M406.5 228L367.997 158.42M260 228H1V163.36L204.601 19.2022L278.465 143.179M260 228V163.36L278.465 143.179M278.465 143.179L329 87.9464L367.997 158.42" stroke="black"/>
</svg>
